<?xml version="1.0" standalone="no"?>
<!DOCTYPE svg PUBLIC "-//W3C//DTD SVG 1.1//EN" "http://www.w3.org/Graphics/SVG/1.1/DTD/svg11.dtd">
<!--Generator: Xara Designer (www.xara.com), SVG filter version: 6.2.0.0-->
<svg stroke-width="0.501" stroke-linejoin="bevel" fill-rule="evenodd" xmlns:xlink="http://www.w3.org/1999/xlink" xmlns="http://www.w3.org/2000/svg" version="1.1" overflow="visible" width="595.277pt" height="841.891pt" viewBox="0 0 595.277 841.891">
 <defs>
	</defs>
 <g id="Document" fill="none" stroke="black" font-family="Times New Roman" font-size="16" transform="scale(1 -1)">
  <g id="Spread" transform="translate(0 -841.891)">
   <g id="Layer 1">
    <path d="M 207.214,553.285 C 213.429,553.285 218.464,551.142 222.429,546.963 C 226.5,542.571 228.643,537.749 228.643,531.856 L 228.643,413.999 C 228.643,408.106 226.5,403.285 222.429,398.892 C 218.464,394.713 213.429,392.571 207.214,392.571 L 35.786,392.571 C 29.571,392.571 24.536,394.713 20.571,398.892 C 16.5,403.285 14.357,408.106 14.357,413.999 L 14.357,531.856 C 14.357,537.749 16.5,542.571 20.571,546.963 C 24.536,551.142 29.571,553.285 35.786,553.285 L 78.643,553.285 L 78.643,574.713 C 78.643,580.928 80.786,585.963 84.857,589.928 C 88.821,593.999 93.857,596.142 100.071,596.142 L 142.929,596.142 C 149.143,596.142 154.179,593.999 158.143,589.928 C 162.214,585.963 164.357,580.928 164.357,574.713 L 164.357,553.285 L 207.214,553.285 M 35.786,531.856 L 35.786,413.999 L 207.214,413.999 L 207.214,531.856 L 35.786,531.856 M 142.929,553.285 L 142.929,574.713 L 100.071,574.713 L 100.071,553.285 L 142.929,553.285 Z" stroke="none" fill="#000000" stroke-width="10.714" fill-rule="evenodd" stroke-linejoin="miter" marker-start="none" marker-end="none" stroke-miterlimit="79.8403193612775"/>
    <path d="M 209.751,500.519 L 209.058,499.83 L 208.3,500.519 C 175.469,530.307 153.766,550.007 153.766,569.981 C 153.766,583.804 164.134,594.172 177.958,594.172 C 188.599,594.172 198.971,587.259 202.631,577.862 L 215.486,577.862 C 219.149,587.259 229.519,594.172 240.162,594.172 C 253.983,594.172 264.351,583.804 264.351,569.981 C 264.351,550.007 242.65,530.307 209.751,500.519 M 240.162,607.996 C 228.134,607.996 216.595,602.396 209.058,593.618 C 201.527,602.396 189.98,607.996 177.958,607.996 C 156.669,607.996 139.942,591.34 139.942,569.981 C 139.942,543.924 163.441,522.569 199.039,490.29 L 209.058,481.167 L 219.082,490.29 C 254.675,522.569 278.175,543.924 278.175,569.981 C 278.175,591.34 261.449,607.996 240.162,607.996 Z" stroke-width="4.153" stroke="#fefefe" fill="#000000" fill-rule="evenodd" stroke-linejoin="miter" marker-start="none" marker-end="none" stroke-miterlimit="79.8403193612775"/>
   </g>
  </g>
 </g>
</svg>
